<?xml version="1.0" encoding="iso-8859-1"?>
<!-- Generator: Adobe Illustrator 19.0.0, SVG Export Plug-In . SVG Version: 6.00 Build 0)  -->
<svg version="1.1" id="Layer_1" xmlns="http://www.w3.org/2000/svg" xmlns:xlink="http://www.w3.org/1999/xlink" x="0px" y="0px"
	 viewBox="0 0 512 512" style="enable-background:new 0 0 512 512;" xml:space="preserve">
<g>
	<g>
		<path d="M16.202,0v492.557h64.81V512h38.886v-19.443h272.203V512h38.886v-19.443h64.81V0H16.202z M456.911,453.671H55.089V155.544
			h401.823V453.671z M456.911,116.658H55.089V38.886h401.823V116.658z"/>
	</g>
</g>
<g>
	<g>
		<path d="M372.658,51.848c-14.294,0-25.924,11.63-25.924,25.924s11.63,25.924,25.924,25.924c14.289,0,25.919-11.627,25.924-25.924
			C398.582,63.478,386.955,51.848,372.658,51.848z"/>
	</g>
</g>
<g>
	<g>
		<path d="M294.886,51.848c-14.295,0-25.924,11.63-25.924,25.924s11.63,25.924,25.924,25.924c14.289,0,25.919-11.627,25.924-25.924
			C320.81,63.478,309.183,51.848,294.886,51.848z"/>
	</g>
</g>
<g>
	<g>
		<path d="M217.114,51.848c-14.295,0-25.924,11.63-25.924,25.924s11.63,25.924,25.924,25.924c14.289,0,25.919-11.627,25.924-25.924
			C243.038,63.478,231.411,51.848,217.114,51.848z"/>
	</g>
</g>
<g>
	<g>
		<path d="M139.342,51.848c-14.295,0-25.924,11.63-25.924,25.924s11.63,25.924,25.924,25.924c14.289,0,25.919-11.627,25.924-25.924
			C165.266,63.478,153.639,51.848,139.342,51.848z"/>
	</g>
</g>
<g>
	<g>
		<path d="M93.975,194.43v220.354h324.051V194.43H93.975z M379.139,375.899H132.861V233.316h246.278V375.899z"/>
	</g>
</g>
<g>
	<g>
		
			<rect x="149.152" y="285.17" transform="matrix(0.7071 -0.7071 0.7071 0.7071 -155.6012 233.5693)" width="109.982" height="38.884"/>
	</g>
</g>
<g>
	<g>
		
			<rect x="252.856" y="285.177" transform="matrix(0.7071 -0.7071 0.7071 0.7071 -125.2322 306.9016)" width="109.982" height="38.884"/>
	</g>
</g>
<g>
</g>
<g>
</g>
<g>
</g>
<g>
</g>
<g>
</g>
<g>
</g>
<g>
</g>
<g>
</g>
<g>
</g>
<g>
</g>
<g>
</g>
<g>
</g>
<g>
</g>
<g>
</g>
<g>
</g>
</svg>
