<?xml version="1.0" encoding="iso-8859-1"?>
<!-- Generator: Adobe Illustrator 19.0.0, SVG Export Plug-In . SVG Version: 6.00 Build 0)  -->
<svg version="1.1" id="Layer_1" xmlns="http://www.w3.org/2000/svg" xmlns:xlink="http://www.w3.org/1999/xlink" x="0px" y="0px"
	 viewBox="0 0 512 512" style="enable-background:new 0 0 512 512;" xml:space="preserve">
<g>
	<g>
		<path d="M179.981,41.192c-20.888,0-37.881,16.992-37.881,37.881c0,20.888,16.993,37.882,37.881,37.882
			s37.882-16.994,37.882-37.882S200.869,41.192,179.981,41.192z M179.981,101.015c-12.099,0-21.942-9.844-21.942-21.943
			s9.843-21.942,21.942-21.942s21.943,9.842,21.943,21.942C201.924,91.171,192.08,101.015,179.981,101.015z"/>
	</g>
</g>
<g>
	<g>
		<path d="M77.163,89.896c-15.934,0-28.896,12.963-28.896,28.896c0,15.934,12.964,28.896,28.896,28.896
			c15.934,0,28.896-12.963,28.896-28.896C106.059,102.859,93.097,89.896,77.163,89.896z M77.163,131.75
			c-7.145,0-12.957-5.812-12.957-12.957c0-7.145,5.813-12.957,12.957-12.957c7.145,0,12.957,5.812,12.957,12.957
			C90.12,125.937,84.308,131.75,77.163,131.75z"/>
	</g>
</g>
<g>
	<g>
		<path d="M62.854,17.741c-15.161,0-27.495,12.334-27.495,27.495c0,15.161,12.334,27.495,27.495,27.495
			c15.161,0,27.495-12.335,27.495-27.495C90.349,30.075,78.015,17.741,62.854,17.741z M62.854,56.792
			c-6.372,0-11.556-5.184-11.556-11.556c0-6.372,5.183-11.556,11.556-11.556c6.372,0,11.556,5.184,11.556,11.556
			S69.226,56.792,62.854,56.792z"/>
	</g>
</g>
<g>
	<g>
		<circle cx="323.679" cy="139.509" r="9.962"/>
	</g>
</g>
<g>
	<g>
		<circle cx="405.467" cy="139.509" r="9.962"/>
	</g>
</g>
<g>
	<g>
		<path d="M389.284,164.904c-2.706-3.474-7.712-4.098-11.186-1.394c-1.384,1.077-6.279,2.786-13.525,2.786
			s-12.141-1.709-13.525-2.786c-3.474-2.702-8.481-2.078-11.184,1.395s-2.078,8.481,1.395,11.184
			c5.019,3.906,13.516,6.146,23.315,6.146c9.799,0,18.297-2.24,23.316-6.147C391.363,173.384,391.986,168.376,389.284,164.904z"/>
	</g>
</g>
<g>
	<g>
		<path d="M333.078,247.893h-28.214c-4.401,0-7.969,3.568-7.969,7.97c0,4.401,3.568,7.969,7.969,7.969h28.214
			c4.401,0,7.969-3.568,7.969-7.969C341.048,251.461,337.48,247.893,333.078,247.893z"/>
	</g>
</g>
<g>
	<g>
		<path d="M468.763,196.028c8.837-16.777,13.468-35.395,13.468-54.595v-23.775C482.232,52.781,429.45,0,364.573,0
			S246.914,52.781,246.914,117.66v23.775c0,19.155,4.611,37.731,13.408,54.477H238.28c1.013-3.919,1.544-7.963,1.544-12.039
			c0-26.566-21.613-48.18-48.18-48.18c-12.139,0-23.601,4.495-32.411,12.532c-5.889-3.45-12.621-5.299-19.554-5.299
			c-15.241,0-28.59,8.746-34.888,21.871c-3.85-1.459-7.96-2.225-12.126-2.225c-18.571,0-33.722,14.877-34.187,33.339h-12.53
			c-18.725,0-33.96,15.234-33.96,33.961s15.234,33.96,33.96,33.96h8.45v0.001c10.515,0,19.07,8.556,19.07,19.072v117.022
			c0,17.699,7.736,33.62,19.996,44.578c-4.181,12.542-6.298,25.391-6.298,38.275c0,16.113,13.108,29.221,29.221,29.221
			c16.113,0,29.221-13.108,29.221-29.221c0-7.7,1.516-15.432,4.471-23.054h35.65c4.401,0,7.969-3.568,7.969-7.969
			s-3.568-7.969-7.969-7.969h-40.928h-11.536c-3.677,0-7.355-0.46-10.917-1.376c-0.022-0.005-0.046-0.012-0.068-0.018
			c-18.885-4.889-32.875-22.073-32.875-42.466V282.903c0-7.031-2.091-13.58-5.673-19.072h183.34c4.401,0,7.969-3.568,7.969-7.969
			c0-4.401-3.568-7.97-7.969-7.97H45.945c-9.936,0-18.021-8.084-18.021-18.022s8.084-18.021,18.021-18.021h21.46h159.103h47.937
			h27.506H427.19h27.506h11.356c9.937,0,18.022,8.084,18.022,18.022s-8.084,18.021-18.022,18.021H371.33
			c-4.401,0-7.969,3.568-7.969,7.97c0,4.401,3.568,7.969,7.969,7.969h56.935c-3.582,5.492-5.673,12.04-5.673,19.072v117.022
			c0,20.391-13.989,37.577-32.875,42.466c-0.022,0.005-0.046,0.012-0.068,0.018c-3.56,0.9-7.244,1.376-10.917,1.376h-11.536H229.181
			c-4.401,0-7.969,3.568-7.969,7.97c0,4.401,3.568,7.969,7.969,7.969h132.74c2.955,7.623,4.472,15.356,4.472,23.054
			c0,16.113,13.108,29.221,29.221,29.221s29.221-13.108,29.221-29.221c0-12.885-2.118-25.734-6.299-38.275
			c12.26-10.959,19.996-26.878,19.996-44.578V282.903c0-10.516,8.556-19.072,19.072-19.072h8.449
			c18.726,0,33.961-15.234,33.961-33.961C500.014,212.059,486.226,197.416,468.763,196.028z M107.262,453.785
			c7.9,3.832,16.64,5.844,25.415,5.924c0.171,0.001,0.341,0.015,0.512,0.015c-2.341,7.609-3.523,15.326-3.523,23.054
			c0,7.324-5.958,13.282-13.282,13.282s-13.283-5.958-13.283-13.282C103.103,473.058,104.499,463.341,107.262,453.785z
			 M221.546,195.911H74.412c0.456-9.671,8.468-17.399,18.25-17.399c4.297,0,8.316,1.442,11.622,4.172
			c2.195,1.813,5.194,2.315,7.862,1.32c2.668-0.997,4.602-3.342,5.072-6.151c1.839-11.002,11.285-18.988,22.459-18.988
			c5.632,0,11.038,2.074,15.225,5.84c1.631,1.467,3.796,2.194,5.98,2.018c2.187-0.179,4.203-1.252,5.572-2.965
			c6.165-7.707,15.346-12.127,25.188-12.127c17.777,0,32.241,14.463,32.241,32.241C223.883,188.007,223.083,192.1,221.546,195.911z
			 M466.294,141.434c0,19.431-5.471,38.177-15.861,54.477h-6.319c10.952-15.921,16.867-34.744,16.867-54.477v-23.776
			c0-2.519-0.118-5.165-0.36-8.089c-0.327-3.951-3.509-7.06-7.466-7.297c-14.803-0.886-28.375-2.62-40.337-5.155
			c-4.309-0.909-8.536,1.84-9.449,6.145c-0.912,4.306,1.839,8.536,6.145,9.449c10.761,2.279,22.684,3.946,35.528,4.972v23.749
			c0,20.367-7.52,39.585-21.246,54.477H305.351c-13.727-14.892-21.247-34.112-21.247-54.477v-23.776
			c0-0.254,0.001-0.509,0.004-0.767c34.029-5.92,53.815-23.377,63.532-34.943c4.884,5.797,12.931,12.772,26.077,19.089
			c3.969,1.905,8.728,0.235,10.636-3.732c1.906-3.968,0.236-8.728-3.732-10.636c-19.998-9.609-24.389-20.204-24.798-21.305
			c-0.711-3.231-3.318-5.478-6.605-5.953c-3.319-0.48-6.552,1.394-8.133,4.356c-0.706,1.322-17.836,32.448-65.563,38.286
			c-3.741,0.458-6.65,3.474-6.973,7.229c-0.257,3.002-0.383,5.741-0.383,8.375v23.776c0,19.734,5.913,38.556,16.868,54.477h-6.318
			c-10.39-16.301-15.86-35.048-15.86-54.477V117.66h-0.002c0-56.088,45.631-101.721,101.721-101.721
			c56.089,0,101.721,45.631,101.721,101.721V141.434z M395.615,496.061c-7.325,0-13.282-5.958-13.282-13.283
			c0-7.728-1.182-15.445-3.524-23.054c0.171,0,0.341-0.013,0.512-0.015c8.74-0.086,17.547-2.107,25.416-5.924
			c2.764,9.555,4.16,19.271,4.16,28.993C408.897,490.102,402.939,496.061,395.615,496.061z"/>
	</g>
</g>
<g>
</g>
<g>
</g>
<g>
</g>
<g>
</g>
<g>
</g>
<g>
</g>
<g>
</g>
<g>
</g>
<g>
</g>
<g>
</g>
<g>
</g>
<g>
</g>
<g>
</g>
<g>
</g>
<g>
</g>
</svg>
