<?xml version="1.0" encoding="iso-8859-1"?>
<!-- Generator: Adobe Illustrator 18.1.1, SVG Export Plug-In . SVG Version: 6.00 Build 0)  -->
<svg version="1.1" id="Capa_1" xmlns="http://www.w3.org/2000/svg" xmlns:xlink="http://www.w3.org/1999/xlink" x="0px" y="0px"
	 viewBox="0 0 196.837 196.837" style="enable-background:new 0 0 196.837 196.837;" xml:space="preserve">
<g>
	<g>
		<path style="fill:#010002;" d="M169.72,64.444h-26.874c-10.951-15.192-28.591-24.25-47.216-24.25
			c-19.694,0-37.889,9.842-48.697,26.333H27.124C12.168,66.527,0,78.695,0,93.648v9.548c0,14.956,12.168,27.11,27.124,27.11h19.809
			c10.805,16.499,28.999,26.337,48.697,26.337c20.278,0,39.371-10.876,49.889-28.416h24.2c14.963,0,27.117-12.165,27.117-27.117
			v-9.545C196.837,76.605,184.683,64.444,169.72,64.444z M169.72,125.31l-47.527,0.011c-9.828,0-18.463,0-22.969-0.229
			c4.538-2.14,11.646-5.651,11.646-11.989V91.565c0-13.346,10.855-24.204,24.211-24.204h34.643
			c13.349,0,24.211,10.858,24.211,24.204v9.545C193.931,114.448,183.069,125.31,169.72,125.31z M27.124,69.44h21.398l0.433-0.673
			c10.228-16.065,27.679-25.653,46.679-25.653c17.139,0,32.983,7.766,43.569,21.33h-4.123c-14.963,0-27.131,12.161-27.131,27.121
			v21.538c0,4.667-6.485,7.709-10.372,9.538c-2.749,1.285-4.13,1.943-3.783,3.493c0.437,1.986,0.465,2.097,28.649,2.097h19.655
			c-10.286,15.983-27.597,25.499-46.468,25.499c-19.004,0-36.451-9.591-46.679-25.653l-0.433-0.676H27.121
			c-13.346,0-24.204-10.855-24.204-24.2v-9.548C2.917,80.302,13.775,69.44,27.124,69.44z"/>
		<path style="fill:#010002;" d="M45.555,116.832h5.44l5.2-19.029c1.045-3.636,1.797-6.71,2.437-9.942
			c0.447,2.802,1.084,5.834,2.086,9.928l4.602,19.043h5.44l10.286-36.293l0.129-0.465h-5.533l-4.828,18.442l-0.197,0.812
			c-0.862,3.446-1.689,6.728-2.348,9.91c-0.562-3.368-1.403-7.068-2.24-10.601l-4.381-18.281l-0.075-0.279h-5.44l-4.885,18.442
			c-1.027,3.901-2.011,7.612-2.645,10.855c-0.612-3.135-1.435-6.9-2.355-10.794l-4.277-18.224l-0.072-0.279h-5.69l9.262,36.479
			L45.555,116.832z"/>
		<rect x="83.824" y="90.223" style="fill:#010002;" width="5.433" height="26.609"/>
		<path style="fill:#010002;" d="M86.429,86.58c1.002,0,1.897-0.347,2.509-0.981c0.583-0.598,0.884-1.41,0.852-2.269
			c0-1.922-1.371-3.31-3.253-3.31c-1.893,0-3.31,1.424-3.31,3.31C83.23,85.184,84.604,86.58,86.429,86.58z"/>
		<polygon style="fill:#010002;" points="123.814,116.03 129.01,116.03 129.01,100.451 142.037,100.451 142.037,96.031 
			129.01,96.031 129.01,85.327 143.107,85.327 143.107,80.861 123.814,80.861 		"/>
		<rect x="147.245" y="90.57" style="fill:#010002;" width="5.225" height="25.46"/>
		<path style="fill:#010002;" d="M149.85,80.81c-1.807,0-3.178,1.367-3.178,3.178c0,1.782,1.317,3.128,3.085,3.128
			c0.966,0,1.818-0.336,2.409-0.945c0.551-0.576,0.841-1.349,0.812-2.183C152.978,82.145,151.672,80.81,149.85,80.81z"/>
	</g>
</g>
<g>
</g>
<g>
</g>
<g>
</g>
<g>
</g>
<g>
</g>
<g>
</g>
<g>
</g>
<g>
</g>
<g>
</g>
<g>
</g>
<g>
</g>
<g>
</g>
<g>
</g>
<g>
</g>
<g>
</g>
</svg>
